<svg id="Layer_1" data-name="Layer 1" xmlns="http://www.w3.org/2000/svg" viewBox="0 0 444 385"><defs><style>.cls-1{fill:#fff}.cls-3{fill:#bb464b}</style></defs><path class="cls-1" d="M221.7 64.82l-110.92 64v128.11L221.7 321l110.92-64V128.85z"/><path d="M332.62 128.85l-34.72-20.04-33.4 19.28 34.72 20.05 33.4-19.29zm-188.44 19.29L255.09 84.1 221.7 64.81l-110.92 64.04 33.4 19.29zm42.8 64.8l34.72 20.04 34.71-20.04-34.71-20.05-34.72 20.05z" fill="#e0684b"/><path class="cls-3" d="M299.22 148.14v89.51l-77.52 44.76-77.52-44.76v-89.51l-33.4-19.29v128.08l110.92 64.04 110.92-64.04V128.85l-33.4 19.29z"/><path class="cls-3" d="M221.7 152.81l-34.72 20.04v40.09l34.72-20.05 34.71 20.05v-40.09l-34.71-20.04z"/><path fill="#e0ded8" d="M299.22 148.14l-42.81 24.71v40.09l-34.71 20.04v49.43l77.52-44.76v-89.51z"/><path fill="#d5d2ca" d="M144.18 148.14l42.8 24.71v40.09l34.72 20.04v49.43l-77.52-44.76v-89.51z"/><path class="cls-1" d="M255.09 84.1l42.81 24.71-33.4 19.28 34.72 20.05-42.81 24.71-34.71-20.04-34.72 20.04-42.8-24.71L255.09 84.1z"/></svg>